<?xml version="1.0" standalone="no"?>
<!DOCTYPE svg PUBLIC "-//W3C//DTD SVG 20010904//EN"
 "http://www.w3.org/TR/2001/REC-SVG-20010904/DTD/svg10.dtd">
<svg version="1.0" xmlns="http://www.w3.org/2000/svg"
 width="612.000000pt" height="711.000000pt" viewBox="0 0 612.000000 711.000000"
 preserveAspectRatio="xMidYMid meet">
<metadata>
Created by potrace 1.16, written by Peter Selinger 2001-2019
</metadata>
<g transform="translate(0.000000,711.000000) scale(0.100000,-0.100000)"
fill="#000000" stroke="none">
<path d="M2885 6944 c-712 -54 -1351 -349 -1830 -845 -284 -294 -500 -656
-629 -1054 -132 -411 -166 -849 -96 -1263 56 -324 287 -889 530 -1292 76 -126
321 -495 398 -600 145 -197 455 -571 686 -830 236 -262 754 -771 919 -902 92
-72 226 -87 322 -36 63 33 317 262 572 515 998 991 1673 1988 1962 2898 71
222 86 335 86 660 0 312 -11 411 -71 655 -126 515 -376 949 -761 1321 -430
416 -970 674 -1576 754 -117 15 -417 26 -512 19z m545 -269 c165 -25 403 -87
538 -141 158 -62 396 -186 526 -273 368 -247 689 -632 876 -1050 195 -435 265
-958 184 -1384 -83 -438 -410 -1113 -825 -1702 -204 -290 -479 -627 -774 -950
-253 -277 -776 -780 -861 -830 -60 -34 -68 -29 -382 267 -452 426 -959 993
-1271 1422 -93 129 -99 145 -51 146 32 0 122 51 170 96 48 45 110 149 110 184
0 15 13 18 85 22 95 5 125 20 160 79 17 30 20 56 23 207 l4 172 105 0 106 0
-27 -32 c-47 -58 -86 -131 -107 -202 -27 -84 -22 -202 10 -286 45 -117 147
-213 269 -250 223 -69 457 64 518 295 40 149 -10 313 -131 423 -83 77 -215
116 -312 94 l-41 -9 -12 45 c-6 26 -25 77 -41 115 -16 38 -29 71 -29 73 0 2
37 4 83 4 76 0 86 2 107 25 35 37 33 90 -5 123 l-29 24 -163 -7 -162 -7 -33
48 c-162 233 -177 252 -221 273 -52 25 -125 27 -170 5 -39 -20 -323 -298 -343
-336 -18 -35 -18 -91 0 -127 21 -39 96 -106 155 -136 28 -14 51 -28 51 -31 0
-19 -64 -114 -74 -110 -164 70 -343 35 -454 -90 l-49 -54 -95 197 c-153 317
-234 542 -286 799 -61 292 -56 620 14 933 79 354 282 777 498 1036 217 260
499 486 786 630 348 175 634 260 970 289 108 9 490 -3 600 -19z m-1537 -3332
c78 -129 98 -143 202 -143 l43 0 26 -65 c14 -36 26 -67 26 -70 0 -3 -58 -5
-128 -5 l-128 0 -22 30 c-20 27 -125 84 -255 139 -27 11 -47 25 -45 30 1 5 48
49 103 99 77 69 103 87 113 79 7 -6 36 -48 65 -94z m-187 -347 c48 -19 60 -29
62 -49 3 -27 -35 -335 -44 -349 -3 -4 -13 -8 -24 -8 -19 0 -30 19 -30 53 0 41
-33 115 -80 179 l-46 63 39 67 c21 38 44 68 51 68 7 0 39 -11 72 -24z m-351
-130 c19 -8 35 -17 35 -19 0 -2 -32 -60 -70 -128 -82 -143 -88 -163 -69 -198
15 -26 16 -26 162 -29 81 -1 147 -5 147 -8 0 -19 -34 -79 -66 -114 -48 -53
-103 -81 -173 -87 l-56 -5 -86 134 c-47 73 -105 166 -129 207 l-43 73 18 35
c28 52 110 121 164 137 60 19 123 19 166 2z m1203 -27 c225 -112 209 -447 -26
-551 -67 -30 -200 -23 -264 15 -56 32 -104 86 -132 146 -31 68 -29 180 4 244
22 44 99 127 117 127 5 0 26 -55 48 -121 51 -154 65 -179 105 -179 20 0 34 8
45 24 14 22 12 32 -35 163 -27 78 -50 146 -50 152 0 7 23 11 63 11 51 0 76 -6
125 -31z m-1048 -88 c23 -33 44 -81 54 -123 l6 -28 -95 0 c-52 0 -95 3 -95 6
0 12 95 174 102 174 4 0 16 -13 28 -29z"/>
<path d="M3479 6217 c-73 -49 -98 -131 -65 -211 40 -97 170 -131 255 -68 92
68 83 223 -15 279 -54 31 -129 31 -175 0z"/>
<path d="M2661 6168 c-64 -32 -149 -153 -329 -473 l-44 -78 -51 51 c-29 27
-61 54 -72 59 -11 6 -91 30 -177 53 -156 43 -157 43 -200 26 -30 -11 -88 -59
-191 -159 -132 -127 -147 -146 -147 -175 0 -21 9 -41 25 -57 43 -44 60 -36
202 89 95 83 119 100 133 91 7 -4 1 -21 -15 -48 -63 -102 -137 -265 -161 -350
-64 -235 -78 -284 -90 -307 -7 -14 -71 -80 -142 -147 l-129 -121 -57 13 c-32
8 -117 21 -189 30 -171 22 -210 9 -192 -63 11 -44 83 -103 221 -178 314 -172
623 -267 1082 -333 185 -27 293 -28 315 -3 38 42 22 58 -143 146 -175 92 -498
225 -730 301 -47 15 -87 29 -89 31 -4 3 99 123 192 221 73 78 98 133 105 235
3 54 9 81 19 85 14 6 263 -126 269 -143 3 -5 -16 -82 -41 -169 -25 -88 -45
-174 -45 -192 0 -59 76 -93 128 -58 29 21 131 332 139 426 8 95 -3 111 -141
193 l-115 68 19 37 c21 42 112 197 133 225 12 18 17 14 66 -48 55 -69 77 -86
108 -86 23 1 231 94 255 114 10 9 18 29 18 46 0 23 -7 35 -32 50 -43 26 -66
25 -138 -4 -33 -14 -60 -21 -60 -16 0 9 186 319 243 405 87 132 138 162 187
110 21 -22 22 -30 17 -97 -11 -134 -116 -500 -214 -743 -55 -138 -161 -342
-287 -553 -103 -173 -118 -215 -78 -220 31 -5 59 23 131 128 136 200 266 443
350 652 129 326 228 720 207 831 -8 45 -49 95 -93 113 -48 21 -121 17 -172 -8z"/>
<path d="M2050 6128 c-101 -69 -115 -195 -31 -279 82 -82 204 -72 274 23 31
42 35 133 8 185 -31 62 -73 87 -151 91 -55 3 -70 0 -100 -20z"/>
<path d="M4055 6071 c-157 -72 -152 -299 7 -366 149 -62 310 79 268 234 -31
116 -167 182 -275 132z"/>
<path d="M4485 5746 c-134 -46 -465 -172 -598 -230 -60 -25 -114 -46 -121 -46
-6 0 -47 36 -91 81 -153 154 -213 185 -263 139 -29 -27 -37 -62 -20 -93 7 -14
81 -91 165 -171 135 -130 156 -146 187 -146 42 0 177 39 273 79 40 16 75 26
78 21 14 -22 115 -296 114 -310 0 -8 -38 -44 -85 -80 -47 -36 -99 -80 -117
-98 -30 -31 -32 -37 -31 -105 1 -58 13 -107 59 -252 90 -282 108 -312 184
-322 35 -5 44 -2 72 26 41 41 38 63 -34 301 -83 268 -87 230 37 333 58 48 109
87 113 87 5 0 46 -79 92 -175 95 -198 124 -235 183 -235 45 0 47 1 273 128
190 107 222 131 231 178 12 64 -59 135 -120 120 -12 -3 -93 -46 -180 -96 -143
-81 -176 -98 -176 -86 0 2 -58 164 -130 359 -71 196 -130 362 -130 369 0 7 34
28 75 47 88 39 79 43 202 -73 44 -41 92 -80 107 -86 59 -22 117 45 95 109 -9
26 -115 130 -228 223 -58 48 -84 48 -216 4z"/>
<path d="M1062 5418 c-15 -15 -16 -97 -1 -135 12 -34 55 -80 90 -98 14 -8 68
-26 119 -40 51 -14 111 -35 133 -46 44 -23 63 -15 52 22 -11 34 -108 132 -204
206 -134 104 -163 117 -189 91z"/>
<path d="M3106 5331 c-13 -14 -17 -34 -15 -76 3 -53 1 -57 -29 -75 -40 -25
-62 -68 -62 -122 0 -41 -2 -45 -32 -53 -26 -8 -34 -16 -36 -38 -2 -18 2 -29
12 -33 13 -5 16 -26 16 -119 l0 -113 -55 -4 c-31 -3 -61 -10 -67 -16 -6 -6
-13 -36 -16 -67 -4 -44 -8 -55 -22 -55 -23 0 -44 -26 -37 -45 4 -8 18 -17 33
-21 l27 -7 -6 -251 -7 -250 -26 -21 c-20 -16 -25 -26 -20 -43 4 -12 10 -22 14
-22 4 0 14 -5 22 -10 13 -8 16 -55 20 -288 6 -354 4 -350 149 -262 93 55 244
117 370 151 109 29 121 41 121 122 0 35 3 112 7 171 6 102 7 107 32 119 38 18
39 46 3 59 l-29 11 -7 120 c-3 66 -6 180 -6 254 l0 133 25 10 c14 5 28 17 31
25 8 20 -13 45 -37 45 -16 0 -19 8 -19 54 0 71 -15 86 -86 86 l-54 0 0 113 c0
68 4 117 11 124 19 19 6 57 -21 63 -22 5 -26 12 -31 68 -6 65 -30 105 -71 118
-15 4 -18 16 -18 68 0 48 -4 67 -18 79 -24 22 -45 21 -66 -2z m80 -467 c-3
-26 -6 -73 -6 -105 l0 -59 -40 0 -40 0 0 93 c0 104 6 117 58 117 l35 0 -7 -46z
m19 -469 c25 -24 25 -26 25 -206 l0 -181 -22 6 c-13 3 -51 6 -85 6 l-63 0 0
175 c0 173 0 176 25 200 33 34 87 34 120 0z"/>
<path d="M4827 4342 c-13 -14 -17 -38 -17 -100 0 -76 2 -83 25 -98 23 -15 27
-15 50 0 24 15 25 22 25 104 0 55 -4 92 -12 100 -18 18 -53 15 -71 -6z"/>
<path d="M4466 4209 c-11 -16 -12 -28 -4 -49 11 -34 110 -130 132 -130 21 0
56 36 56 57 0 24 -123 143 -148 143 -11 0 -27 -9 -36 -21z"/>
<path d="M5131 4172 c-62 -59 -76 -93 -49 -120 26 -26 62 -13 120 45 63 62 76
103 39 123 -34 18 -48 11 -110 -48z"/>
<path d="M869 4131 c-17 -18 -29 -40 -29 -56 0 -35 50 -85 85 -85 32 0 85 50
85 80 0 81 -84 117 -141 61z"/>
<path d="M3865 4063 c-13 -13 -16 -28 -12 -64 5 -43 4 -48 -18 -53 -34 -9 -86
-55 -100 -91 -8 -18 -16 -107 -21 -228 -7 -197 -7 -198 -29 -193 -44 11 -97
-15 -161 -78 -80 -80 -114 -147 -114 -223 0 -78 23 -122 80 -151 110 -57 281
3 340 119 17 31 22 35 50 31 17 -2 78 -1 136 3 76 5 109 11 121 23 12 13 17
14 21 4 5 -17 162 -240 234 -333 32 -42 58 -80 58 -86 0 -6 -28 -16 -62 -22
-35 -7 -71 -14 -81 -17 -13 -4 -48 25 -126 100 -136 132 -181 156 -298 156
-102 0 -203 -19 -337 -64 -146 -49 -215 -86 -291 -158 -122 -114 -132 -172
-51 -302 26 -42 59 -84 73 -96 63 -49 153 2 153 87 0 15 -16 55 -36 88 l-36
60 36 31 c37 32 231 134 254 134 10 0 9 -7 -3 -29 -8 -17 -74 -177 -145 -357
-72 -181 -137 -339 -146 -352 -16 -24 -19 -24 -96 -18 -123 10 -173 24 -235
67 -65 44 -89 48 -126 19 -34 -27 -50 -100 -51 -233 -1 -107 -1 -109 27 -133
15 -13 37 -24 47 -24 31 0 67 42 85 98 9 29 23 56 30 58 7 3 59 -4 117 -15
226 -44 300 -37 353 33 22 29 93 172 144 290 13 29 26 46 33 43 28 -11 233
-170 236 -182 4 -17 -93 -240 -154 -352 -48 -90 -55 -133 -27 -173 23 -33 36
-43 114 -85 78 -41 117 -44 147 -12 35 37 29 77 -20 132 l-41 47 107 216 c68
138 106 228 106 248 0 47 -35 90 -162 198 l-116 100 23 60 c13 34 44 112 68
173 24 62 46 115 49 119 4 3 33 -18 65 -48 135 -124 136 -124 332 -79 96 22
130 26 150 18 38 -14 94 -1 121 28 45 48 22 135 -42 159 -22 8 -63 57 -156
186 -113 158 -243 304 -334 378 l-28 22 0 185 0 184 -30 16 c-28 14 -30 20
-30 68 0 63 -25 109 -75 138 -33 20 -35 24 -35 73 0 29 -5 57 -12 64 -17 17
-54 15 -73 -5z m55 -458 c7 -8 14 -59 18 -120 l5 -105 -47 0 -46 0 0 120 0
120 29 0 c16 0 34 -7 41 -15z"/>
<path d="M4808 4061 c-21 -4 -59 -21 -85 -37 -124 -77 -151 -253 -56 -364 144
-168 420 -81 440 139 6 68 -6 113 -47 169 -49 68 -165 110 -252 93z m149 -155
c28 -31 33 -43 33 -87 0 -46 -4 -55 -39 -90 -34 -34 -44 -39 -85 -39 -86 0
-139 48 -139 126 0 82 64 138 147 131 42 -4 55 -10 83 -41z"/>
<path d="M2077 3925 c-71 -25 -126 -100 -127 -173 0 -37 23 -97 48 -125 49
-54 155 -73 221 -39 91 46 127 162 79 252 -18 35 -36 51 -78 73 -60 30 -87 33
-143 12z"/>
<path d="M4327 3852 c-10 -10 -17 -28 -17 -40 0 -35 37 -52 115 -52 79 0 115
17 115 54 0 42 -29 56 -117 56 -65 0 -83 -3 -96 -18z"/>
<path d="M5187 3852 c-22 -24 -21 -45 1 -65 26 -24 183 -24 206 -1 19 18 20
38 6 65 -9 17 -22 19 -104 19 -77 0 -96 -3 -109 -18z"/>
<path d="M1043 3710 c-74 -30 -60 -140 18 -140 37 0 79 40 79 75 0 27 -40 75
-62 74 -7 0 -23 -4 -35 -9z"/>
<path d="M4518 3562 c-65 -63 -78 -103 -42 -129 26 -19 52 -7 112 51 64 62 74
92 42 118 -12 10 -29 18 -37 18 -8 0 -42 -26 -75 -58z"/>
<path d="M5092 3604 c-38 -26 -28 -55 42 -122 35 -34 68 -62 73 -62 5 0 19 7
31 16 38 26 28 55 -42 122 -35 34 -68 62 -73 62 -5 0 -19 -7 -31 -16z"/>
<path d="M4832 3494 c-20 -14 -22 -24 -22 -103 0 -94 7 -111 50 -111 43 0 50
17 50 111 0 79 -2 89 -22 103 -12 9 -25 16 -28 16 -3 0 -16 -7 -28 -16z"/>
<path d="M2120 1833 c-28 -10 -50 -36 -50 -59 0 -28 39 -61 137 -115 121 -66
304 -178 344 -210 85 -67 117 -4 53 107 -29 51 -148 164 -227 215 -88 57 -198
84 -257 62z"/>
<path d="M3071 1420 c-86 -18 -147 -42 -289 -113 l-143 -71 -96 -2 c-100 -2
-116 -9 -111 -49 5 -32 69 -57 163 -63 122 -7 186 9 345 88 181 89 228 98 426
80 155 -14 176 -11 182 28 3 16 -7 26 -45 45 -26 14 -73 32 -103 42 -65 19
-264 29 -329 15z"/>
</g>
</svg>
